<?xml version="1.0" standalone="no"?>
<!DOCTYPE svg PUBLIC "-//W3C//DTD SVG 20010904//EN"
 "http://www.w3.org/TR/2001/REC-SVG-20010904/DTD/svg10.dtd">
<svg version="1.0" xmlns="http://www.w3.org/2000/svg"
 width="700.000000pt" height="700.000000pt" viewBox="0 0 700.000000 700.000000"
 preserveAspectRatio="xMidYMid meet">
<metadata>
Created by potrace 1.11, written by Peter Selinger 2001-2013
</metadata>
<g transform="translate(0.000000,700.000000) scale(0.100000,-0.100000)"
fill="#000000" stroke="none">
<path d="M4475 6988 c-49 -18 -83 -47 -112 -95 l-27 -46 0 -221 c0 -239 5
-272 52 -322 41 -45 78 -64 131 -71 59 -7 112 9 156 49 65 56 68 71 73 298 3
136 0 223 -8 258 -27 120 -151 190 -265 150z"/>
<path d="M3520 6590 c-28 -9 -62 -28 -77 -41 -60 -55 -79 -157 -44 -234 24
-54 302 -332 356 -356 141 -65 295 46 282 203 -3 37 -13 69 -28 90 -29 41
-274 287 -314 315 -50 34 -115 43 -175 23z"/>
<path d="M5465 6600 c-58 -13 -94 -41 -240 -187 -166 -165 -190 -203 -182
-284 15 -144 157 -227 287 -168 57 26 334 303 357 357 39 93 -2 213 -88 258
-40 20 -100 31 -134 24z"/>
<path d="M4475 5978 c-50 -18 -92 -55 -116 -105 -22 -45 -23 -59 -24 -289 -1
-218 -3 -244 -20 -270 -53 -81 -52 -81 -473 -82 -240 -1 -383 -5 -420 -13
-198 -42 -369 -203 -428 -404 -15 -49 -18 -107 -20 -325 -1 -146 -3 -267 -3
-271 -1 -3 -36 -5 -78 -5 -213 -1 -351 -98 -412 -286 -7 -21 -13 -94 -13 -163
-1 -74 -6 -131 -12 -139 -6 -7 -31 -21 -56 -30 -68 -27 -224 -117 -325 -188
-118 -83 -315 -279 -404 -400 -107 -146 -189 -294 -251 -455 -33 -85 -85 -271
-95 -343 -3 -25 -8 -56 -10 -70 -21 -134 -21 -447 0 -520 2 -8 7 -35 10 -60 4
-25 17 -88 30 -140 169 -667 678 -1181 1345 -1357 165 -43 288 -58 495 -58
195 0 279 10 457 55 654 165 1187 701 1352 1360 14 52 27 113 30 135 2 22 9
72 15 110 5 39 10 77 10 85 0 8 0 74 0 145 1 72 -1 141 -3 155 -3 14 -7 52
-11 84 -9 87 -49 259 -83 358 -161 471 -511 867 -959 1084 l-112 55 -3 147
c-3 141 -4 150 -34 212 -69 144 -188 217 -366 225 -46 2 -88 4 -93 4 -15 1
-12 477 2 511 12 28 46 61 82 80 18 9 126 13 410 14 403 2 424 4 521 49 149
68 251 183 306 344 27 77 27 82 28 348 0 256 -1 272 -21 310 -50 94 -152 137
-248 103z"/>
</g>
</svg>
