<?xml version="1.0" encoding="iso-8859-1"?>
<!-- Generator: Adobe Illustrator 19.0.0, SVG Export Plug-In . SVG Version: 6.00 Build 0)  -->
<svg xmlns="http://www.w3.org/2000/svg" xmlns:xlink="http://www.w3.org/1999/xlink" version="1.1" id="Layer_1" x="0px" y="0px" viewBox="0 0 512 512" style="enable-background:new 0 0 512 512;" xml:space="preserve" width="512" height="512">
<g>
	<g>
		<path style="fill:#FF8036;" d="M332.115,73.9c-8.284,0-15,6.716-15,15v29.009c0,6.256-5.09,11.346-11.346,11.346h-46.921    c-22.798,0-41.346,18.548-41.346,41.346v69.934c0,8.284,6.716,15,15,15s15-6.716,15-15V170.6c0-6.256,5.09-11.346,11.346-11.346    h46.921c22.798,0,41.346-18.548,41.346-41.346V88.9C347.115,80.616,340.399,73.9,332.115,73.9z"/>
		<path style="fill:#343642;" d="M343.054,292.123c-15.186-20.403-35.25-35.94-58.49-45.396v-14.891    c0-15.459-12.577-28.035-28.035-28.035h-48.052c-15.458,0-28.035,12.576-28.035,28.035v14.891    c-23.235,9.454-43.301,24.99-58.485,45.389C104.18,315.998,94.78,344.4,94.775,374.252c-0.005,36.748,14.155,71.255,39.874,97.164    c25.721,25.911,60.123,40.323,96.868,40.581c0.334,0.002,0.663,0.003,0.996,0.003c36.609-0.001,71.038-14.182,97.033-39.996    c26.235-26.052,40.684-60.76,40.684-97.73C370.23,344.418,360.833,316.011,343.054,292.123z"/>
		<path style="fill:#18191F;" d="M343.054,292.123c-15.186-20.403-35.25-35.94-58.49-45.396v-14.891    c0-15.459-12.577-28.035-28.035-28.035h-24.026c0,0,0.01,308.199-0.986,308.196c0.334,0.002,0.663,0.003,0.996,0.003    c36.609-0.001,71.038-14.182,97.033-39.996c26.235-26.052,40.684-60.76,40.684-97.73    C370.23,344.418,360.833,316.011,343.054,292.123z"/>
	</g>
	<g>
		<path style="fill:#FFED76;" d="M332.142,0c-8.284,0-15,6.716-15,15v26.309c0,8.284,6.716,15,15,15s15-6.716,15-15V15    C347.142,6.716,340.426,0,332.142,0z"/>
		<path style="fill:#FFC636;" d="M332.142,0v56.309c8.284,0,15-6.716,15-15V15C347.142,6.716,340.426,0,332.142,0z"/>
		<path style="fill:#FFED76;" d="M272.667,33.423c-5.857-5.857-15.355-5.857-21.213,0c-5.857,5.858-5.857,15.355,0,21.213    l18.603,18.603c2.929,2.929,6.768,4.394,10.606,4.394s7.678-1.465,10.607-4.394c5.857-5.858,5.857-15.355,0-21.213L272.667,33.423    z"/>
		<path style="fill:#FFC636;" d="M412.832,33.423c-5.858-5.858-15.355-5.858-21.213,0l-18.603,18.603    c-5.858,5.857-5.858,15.354,0,21.213c2.93,2.93,6.768,4.394,10.607,4.394c3.838,0,7.678-1.465,10.606-4.394l18.603-18.603    C418.689,48.778,418.689,39.281,412.832,33.423z"/>
	</g>
</g>















</svg>
